<svg width="22" height="16" viewBox="0 0 22 16" fill="none" xmlns="http://www.w3.org/2000/svg">
<path d="M1.5724 0.0707893C0.47678 0.328954 -0.210669 1.41158 0.064311 2.44007C0.150242 2.75237 0.309215 3.03552 0.524043 3.25204C0.717388 3.44359 9.86905 9.37721 10.2042 9.52295C10.7155 9.7478 11.3213 9.73947 11.8455 9.50213C12.2536 9.31475 21.2206 3.49772 21.4483 3.27286C22.5181 2.21522 21.9338 0.416397 20.4042 0.0666256C20.0003 -0.0249815 1.96769 -0.0208178 1.5724 0.0707893Z" fill="#070707"/>
<path d="M0 9.34809C0 12.7209 0.0128897 14.2657 0.0472621 14.4198C0.206235 15.1526 0.816346 15.7522 1.59402 15.9313C1.9979 16.0229 19.9274 16.0229 20.3786 15.9313C21.1605 15.7731 21.7921 15.1651 21.9511 14.4198C22.007 14.1658 22.0199 4.4846 21.964 4.50959C21.9468 4.51375 19.8716 5.85454 17.3495 7.48681C14.8274 9.11908 12.6276 10.5223 12.4557 10.6014C11.9831 10.8346 11.5792 10.9221 10.9992 10.9221C10.4192 10.9221 10.0153 10.8346 9.54265 10.6014C9.37079 10.5223 7.17095 9.11908 4.64887 7.48681C2.1268 5.85454 0.0515587 4.51375 0.0343725 4.50959C0.0128897 4.50126 0 6.679 0 9.34809Z" fill="#070707"/>
</svg>
