<svg width="22" height="22" viewBox="0 0 22 22" fill="none" xmlns="http://www.w3.org/2000/svg">
<path d="M3.2459 0.0409299C3.15126 0.0753421 3.01361 0.131262 2.94049 0.169975C2.77273 0.256006 1.42205 1.54646 1.01771 1.99812C0.673588 2.38956 0.350974 2.98747 0.19612 3.51656C-0.59536 6.25232 1.03492 10.3001 4.61378 14.4811C5.2289 15.1952 7.09576 17.0319 7.84852 17.6599C11.8833 21.0194 15.6816 22.525 18.3915 21.8367C18.5765 21.7894 18.9464 21.6432 19.2045 21.5184C19.7637 21.2431 19.996 21.0452 21.0542 19.9441C21.9145 19.0493 22.0005 18.9074 22.0005 18.374C22.0005 17.7804 22.0349 17.8234 19.7981 15.5952C17.9485 13.7542 17.8151 13.6251 17.5915 13.552C17.243 13.4359 16.8473 13.4531 16.5376 13.595C16.3397 13.6853 16.1375 13.8531 15.5956 14.3908C14.7008 15.2726 14.404 15.4361 13.6728 15.4361C13.2297 15.4361 12.9329 15.3414 12.4081 15.0489C10.6617 14.0725 9.13898 12.7304 7.93455 11.1087C7.32804 10.2871 6.76454 9.32791 6.6398 8.91066C6.48924 8.37727 6.57957 7.70624 6.86778 7.24167C6.928 7.14274 7.27212 6.7599 7.63775 6.39427C8.15823 5.86519 8.32169 5.67162 8.41202 5.47375C8.55397 5.15974 8.57118 4.764 8.45504 4.41557C8.38191 4.19189 8.25287 4.05855 6.41181 2.2089C4.24385 0.0323269 4.23955 0.0280254 3.70616 0.00221626C3.5384 -0.00638677 3.34483 0.0108193 3.2459 0.0409299Z" fill="#070707"/>
</svg>
